# xmcd
#
# Track frame offsets:
# 150
# 18454
# 38884
# 61801
# 82120
# 95917
# 112679
# 128651
# 140521
# 161298
# 182017
# 197389
# 217829
#
# Disc length: 3171 seconds
#
#
# Revision: 11
# Processed by: cddbd v1.5.1PL2 Copyright (c) Steve Scherf et al.
# Submitted via: FreeRIP 2.30 
#
DISCID=a40c610d
DTITLE=Bryan Adams - MTV Unplugged
DYEAR=1997
DGENRE=Rock
TTITLE0=Summer of '69
TTITLE1=Back to you
TTITLE2=Cuts like a knife
TTITLE3=I'm ready
TTITLE4=Fits ya good
TTITLE5=When you love someone
TTITLE6=Till I die
TTITLE7=I think about you
TTITLE8=If you wanna be bad
TTITLE9=The only thing that looks good on me is you
TTITLE10=A little love
TTITLE11=Heaven
TTITLE12=I'll always be right there
EXTD=YEAR: 1997
EXTT0=
EXTT1=
EXTT2=
EXTT3=
EXTT4=
EXTT5=
EXTT6=
EXTT7=
EXTT8=
EXTT9=
EXTT10=
EXTT11=
EXTT12=
PLAYORDER=
